<?xml version="1.0" encoding="UTF-8"?>
<svg width="122pt" height="122pt" version="1.0" viewBox="0 0 122 122" xmlns="http://www.w3.org/2000/svg">
  <style>
    @media (prefers-color-scheme: dark) {
    .a { fill: #f0f0f0 }
    }
  </style>
 <g transform="translate(0 122) scale(.1 -.1)">
  <path class="a" fill="#0f0f0f" d="m305 1010c11-4 31-20 45-35 21-22 25-38 28-101 5-87-1-117-29-142l-20-19 30-31c30-30 31-33 31-127 0-163-36-194-220-195h-105l145-145 128-3c146-3 183 9 215 69 27 52 21 213-10 253l-23 29 20 32c28 45 28 160 1 213-38 73-200 213-243 211-7 0-4-4 7-9z"/>
  <path class="a" fill="#0f0f0f" d="m692 1007c55-216 104-397 108-397 3 0 20 57 38 127l34 128-83 77c-81 76-104 91-97 65z"/>
  <path class="a" fill="#0f0f0f" d="m1020 690v-330h-35-35l-1 263v262l-25-90c-13-49-39-145-57-213l-32-123-70 6-42 160c-79 294-71 295-72-2l-1-263h-37-38l72-72c71-71 73-72 125-73h53l5 83 5 82 35-30c19-16 51-33 70-36 60-10 67-14 110-57 38-38 47-41 93-42h52l3 325 2 324-77 78c-43 43-83 78-90 78-10 0-13-69-13-330z"/>
  <path class="a" fill="#0f0f0f" d="m140 846v-116h40c57 0 108 24 120 55 18 48 12 111-13 141-20 23-34 28-85 32l-62 4v-116z"/>
  <path class="a" fill="#0f0f0f" d="m140 552v-127l70 5c96 7 105 18 105 121 0 76-2 82-28 105-23 20-39 24-88 24h-59v-128z"/>
 </g>
</svg>
